<?xml version="1.0" encoding="utf-8"?>
<!-- Generator: Adobe Illustrator 24.0.1, SVG Export Plug-In . SVG Version: 6.00 Build 0)  -->
<svg version="1.1" id="Camada_1" xmlns="http://www.w3.org/2000/svg" xmlns:xlink="http://www.w3.org/1999/xlink" x="0px" y="0px"
	 viewBox="0 0 1920 1080" style="enable-background:new 0 0 1920 1080;" xml:space="preserve">
<style type="text/css">
	.st0{display:none;}
	.st1{display:inline;fill:#FFFFFF;stroke:#000000;stroke-width:18;stroke-miterlimit:10;}
	.st2{display:inline;fill:#FFFFFF;}
	.st3{display:inline;}
	.st4{stroke:#000000;stroke-width:0.2215;stroke-miterlimit:10;}
	.st5{fill:#FFFFFF;}
</style>
<g class="st0">
	<path class="st1" d="M861.86,422.69c304.2-55.04,571.95-56.37,597.61-2.95c4.77,9.93,0.57,21.08-11.01,32.97
		c1.52,2.49,1.22,2,2.74,4.5c24.19-9.8,74.42-34.58,67.86-48.24c-28.44-59.2-325.13-57.74-662.23,3.25
		c-337.1,61-587.58,158.55-559.15,217.75c18.47,38.45,150.21,51.22,332.58,38.78c-4.42-3.89-8.58-7.98-12.35-12.28
		c-143.85,6.87-245.35-5.43-260.65-37.28C331.61,565.75,557.67,477.73,861.86,422.69z"/>
	<path class="st1" d="M1414.62,485.34c1.98-3.22,3.94-6.45,5.94-9.65c5.91-9.43,11.83-18.85,17.75-28.28
		c1.84-2.93,1.99-5.96,0.91-9.07c-2.52-7.27-5.03-14.55-7.54-21.83c-1.84-5.34-3.71-10.67-5.53-16.03
		c-4.62-13.63,5.65-28.67,18.79-27.39c4.95,0.48,9.64,3.16,14.57,3c7.99-0.26,15.62,2,22.33,6.57c4.22,2.87,7.89,1.44,10.98-1.44
		c9.65-8.96,19.28-17.95,28.87-26.99c4.63-4.36,9.78-6.29,15.58-5.12c7.77,1.57,13.04,8.57,13.16,17.63
		c0.16,12.63,0.17,25.28,0.24,37.91c0.01,1.35,0.04,2.69,0.02,4.04c-0.07,3.88,1.61,6.57,4.43,8.47c10.46,7,20.96,13.94,31.37,21.01
		c6,4.07,8.63,10.31,7.61,18.18c-1.02,7.85-5.2,13.43-11.99,16.42c-11.84,5.21-23.73,10.3-35.59,15.43
		c-2.9,1.26-5.08,3.85-5.88,7.03c-3.37,13.33-6.63,26.68-9.91,40.03c-3.02,12.29-14.61,18.94-25.56,14.08
		c-2.02-0.9-3.64-2.56-4.95-4.4c-7.97-11.15-15.95-22.29-23.94-33.41c-1.57-2.18-4.11-3.34-6.7-3.06c-7,0.74-14,1.43-21,2.14
		c-5.81,0.59-11.64,0.96-17.44,1.81c-10.61,1.54-20.9-10.39-17.43-23.69c0.29-1.11,0.68-2.19,1.02-3.28
		C1414.69,485.41,1414.65,485.38,1414.62,485.34z"/>
	<path class="st2" d="M861.86,422.69c304.2-55.04,571.95-56.37,597.61-2.95c4.34,9.04,0.97,19.12-8.35,29.82
		c1.6,1.87,3.08,3.81,4.46,5.81c25.33-10.75,69.67-33.52,63.47-46.41c-28.44-59.2-325.13-57.74-662.23,3.25
		c-337.1,61-587.58,158.55-559.15,217.75c18.47,38.45,150.21,51.22,332.58,38.78c-4.42-3.89-8.58-7.98-12.35-12.28
		c-143.85,6.87-245.35-5.43-260.65-37.28C331.61,565.75,557.67,477.73,861.86,422.69z"/>
	<path class="st3" d="M1448.68,467.31c1.2-1.95,2.39-3.91,3.6-5.85c3.58-5.72,7.17-11.42,10.75-17.14c1.11-1.77,1.2-3.61,0.55-5.5
		c-1.53-4.41-3.05-8.82-4.57-13.23c-1.12-3.24-2.25-6.47-3.35-9.71c-2.8-8.26,3.42-17.37,11.39-16.6c1.7,0.17,3.36,0.76,5.02,1.23
		c6.06,1.7,12.12,3.45,18.18,5.14c1.8,0.5,4.42-0.15,5.81-1.44c5.85-5.43,11.68-10.88,17.5-16.36c2.81-2.64,5.93-3.81,9.44-3.1
		c4.71,0.95,7.9,5.19,7.97,10.68c0.1,7.65,0.1,15.32,0.14,22.97c0,0.82,0.02,1.63,0.01,2.45c-0.04,2.35,0.97,3.98,2.69,5.13
		c6.34,4.24,12.7,8.45,19.01,12.73c3.63,2.47,5.23,6.25,4.61,11.02c-0.62,4.76-3.15,8.14-7.27,9.95
		c-7.18,3.16-14.38,6.24-21.57,9.35c-1.76,0.76-3.08,2.33-3.56,4.26c-2.04,8.07-4.02,16.17-6.01,24.26c-1.7,6.9-7.84,10.86-14,9.08
		c-1.92-0.55-3.41-1.7-4.6-3.37c-4.79-6.7-9.59-13.4-14.39-20.09c-0.95-1.32-2.49-2.02-4.06-1.86c-4.24,0.45-8.48,0.87-12.73,1.29
		c-3.52,0.36-7.06,0.58-10.57,1.09c-6.43,0.94-12.67-6.3-10.56-14.36c0.17-0.67,0.41-1.32,0.62-1.99
		C1448.72,467.35,1448.7,467.33,1448.68,467.31z"/>
</g>
<path class="st0" d="M1405.81,682.25c29.37-94.44-145.06-250.51-389.61-348.59c-244.55-98.08-466.6-101.04-495.97-6.6
	c-29.37,94.44,145.06,250.51,389.61,348.59C1154.39,773.74,1376.44,776.69,1405.81,682.25z M917.94,649.59
	c-207.28-83.13-355.13-215.42-330.23-295.46c24.9-80.05,213.11-77.54,420.39,5.59c207.28,83.13,355.13,215.42,330.23,295.46
	C1313.43,735.23,1125.22,732.73,917.94,649.59z"/>
<g id="_x33_" class="st0">
	<path class="st3" d="M1306.51,774.37c-45.21,22.69-121.12,23.39-207.54,6.19c132.21,46.36,261.03,59.3,326.16,26.62
		c91.24-45.79,22.96-163.78-152.51-263.53c-88.52-50.32-187.41-86.38-275.4-103.89c53.01,18.59,106.56,42.54,156.78,71.08
		C1329.47,610.59,1397.76,728.58,1306.51,774.37z"/>
	<path class="st3" d="M747.89,547.27c-175.47-99.75-243.76-217.74-152.51-263.53c45.21-22.69,121.12-23.39,207.54-6.19
		c-132.21-46.36-261.03-59.3-326.16-26.62c-91.24,45.79-22.96,163.78,152.51,263.53c88.52,50.32,187.41,86.38,275.4,103.89
		C851.66,599.77,798.1,575.82,747.89,547.27z"/>
</g>
<g>
	<g transform="matrix(1 0 0 -1 0 480)">
		<path class="st4" d="M1360-53c0,61.07-36.25,113.8-108.75,158.14c-72.5,44.29-160.7,68.28-264.6,71.86h-12.38h-1.54h-3.07h-2.35
			h-3.8c-109,0-202.38-22.48-280.06-67.38C605.84,64.71,567,10.47,567-53s38.84-117.71,116.44-162.62
			C761.12-260.52,854.42-283,963.5-283h3.88h3.88h1.54h1.54h12.38c103.9,3.58,192.1,27.57,264.6,71.86
			C1323.83-166.85,1360-114.07,1360-53z M1285.96-126.65c-26.7,4.19-62.71,7.78-108.03,10.79c5.18,20.36,7.69,41.33,7.69,62.91
			c0,16.78-1.54,33.55-4.61,50.33c51.46,3.58,88.44,7.49,111.1,11.69l-9.22,15.22c18.45-24.55,27.76-50.33,27.76-77.28
			C1310.64-78.78,1302.39-103.33,1285.96-126.65z M789.2-53c0,15.55,1.54,31.15,4.61,46.7c45.23-1.79,93.62-3.02,145.01-3.58v-99.71
			c-50.41,0-97.75-0.9-141.93-2.69C791.71-93.15,789.2-73.36,789.2-53z M986.64,146.47c30.83-5.37,58.34-19.32,82.54-41.8
			c24.19-22.48,41.92-49.85,53.24-82.23c-41.11-1.79-86.42-3.02-135.78-3.58V146.47z M938.82,145.57V18.86
			c-48.31,0.61-94.11,1.79-137.32,3.58c12.38,32.33,30.83,59.61,55.51,81.76C881.69,126.39,908.96,140.15,938.82,145.57z
			 M938.82-138.34v-113.19c-27.76,4.81-53.49,17.06-77.12,36.85c-23.63,19.79-41.67,44.34-53.97,73.65
			C847.79-139.23,891.48-138.34,938.82-138.34z M986.64-252.47v114.08c47.34,0,91.03-0.9,131.17-2.69
			c-12.38-29.36-30.1-54.05-53.24-74.12C1041.42-235.22,1015.45-247.66,986.64-252.47z M986.64-109.59v99.71
			c52.44,0.61,100.82,1.79,145.01,3.58c3.07-15.55,4.61-31.15,4.61-46.7c0-20.36-2.59-40.43-7.69-60.17
			C1085.36-110.82,1038.11-109.59,986.64-109.59z M1273.58,35.97c-22.66-4.19-56.08-7.78-100.26-10.79
			c-14.4,43.73-38.6,79.35-72.5,106.92C1178.99,112.3,1236.6,80.26,1273.58,35.97z M844.71,136.57
			c-42.16-28.74-72.5-65.88-91.03-111.4c-42.16,2.4-76.14,5.37-101.8,9C692.99,83.84,757.24,118,844.71,136.57z M633.35,7.17
			c26.7-4.19,64.25-7.78,112.64-10.79c-4.13-16.16-6.15-32.66-6.15-49.43c0-20.97,3.07-41.61,9.22-62.01
			c-44.26-3.02-80.19-6.6-108.03-10.79c-16.43,23.42-24.68,47.69-24.68,72.85C616.36-32.03,622.02-11.96,633.35,7.17z
			 M662.65-151.81c26.7,3.02,59.15,5.7,97.18,8.1c18.53-40.15,46.77-73.09,84.88-98.81C765.49-225.18,704.8-194.93,662.65-151.81z
			 M1100.82-238.09c30.83,24.55,53.49,55.98,67.89,94.34c38.03-2.4,69.91-5.7,95.65-9.9
			C1225.27-191.96,1170.73-220.09,1100.82-238.09z"/>
	</g>
</g>
<g>
	<path d="M1466.84,543.5c-0.23-1.35-0.67-2.59-1.28-3.73c-0.11-0.24-0.23-0.47-0.35-0.7c-0.11-0.24-0.23-0.47-0.35-0.7
		c-0.11-0.24-0.23-0.47-0.35-0.7c-0.11-0.24-0.23-0.47-0.35-0.7c-0.11-0.24-0.23-0.47-0.35-0.7c-0.11-0.24-0.23-0.47-0.35-0.7
		c-0.11-0.24-0.23-0.47-0.35-0.7c-0.11-0.24-0.23-0.47-0.35-0.7c-0.11-0.24-0.23-0.47-0.35-0.7c-0.11-0.24-0.23-0.47-0.35-0.7
		c-0.11-0.24-0.23-0.47-0.35-0.7c-0.11-0.24-0.23-0.47-0.35-0.7c-0.11-0.24-0.23-0.47-0.35-0.7c-0.11-0.24-0.23-0.47-0.35-0.7
		c-0.11-0.24-0.23-0.47-0.35-0.7c-0.11-0.24-0.23-0.47-0.35-0.7c-0.11-0.24-0.23-0.47-0.35-0.7c-0.11-0.24-0.23-0.47-0.35-0.7
		c-0.11-0.24-0.23-0.47-0.35-0.7c-2.01-4.44-6.56-7.26-12.15-7.26h-6.11c-0.03-0.05-0.05-0.1-0.08-0.16
		c-0.1-0.24-0.23-0.47-0.35-0.7c-0.1-0.24-0.23-0.47-0.35-0.7c-0.1-0.24-0.23-0.47-0.35-0.7c-0.1-0.24-0.23-0.47-0.35-0.7
		c-0.1-0.24-0.23-0.47-0.35-0.7c-0.1-0.24-0.23-0.47-0.35-0.7c-0.1-0.24-0.23-0.47-0.35-0.7c-0.1-0.24-0.23-0.47-0.35-0.7
		c-0.1-0.24-0.23-0.47-0.35-0.7c-0.1-0.24-0.23-0.47-0.35-0.7c-0.1-0.24-0.23-0.47-0.35-0.7c-0.1-0.24-0.23-0.47-0.35-0.7
		c-0.1-0.24-0.23-0.47-0.35-0.7c-0.19-0.43-0.4-0.86-0.65-1.27c-1.89-3.11-5.25-4.9-9.23-4.9h-12.45c-0.04-0.08-0.08-0.16-0.13-0.23
		c-0.11-0.23-0.22-0.47-0.35-0.7c-0.11-0.23-0.22-0.47-0.35-0.7c-0.11-0.23-0.22-0.47-0.35-0.7c-0.11-0.23-0.22-0.47-0.35-0.7
		c-0.11-0.23-0.22-0.47-0.35-0.7c-0.32-0.66-0.69-1.3-1.15-1.89c-2.25-2.89-5.98-4.54-10.25-4.54c-0.21,0-0.42,0-0.71,0.02
		c-6.71,0.32-13.9,4.95-17.55,11.19c-1.47-0.68-3.13-1.04-4.91-1.04l-54.7,0c-3.17,0-6.57,1.16-9.58,3.28
		c-2.91,2.04-5.19,4.78-6.42,7.72c-0.02,0.05-0.04,0.09-0.06,0.14c-0.57,1.44-0.88,2.89-0.93,4.3l-34.13,0
		c-5.67,0-11.87,2.35-17.18,6.15c-2.68-3.88-7.26-6.11-12.75-6.16h-43.79c-0.04-0.07-0.08-0.14-0.12-0.22
		c-0.11-0.24-0.22-0.47-0.35-0.7c-0.11-0.23-0.22-0.47-0.35-0.7c-0.11-0.24-0.22-0.47-0.35-0.7c-0.11-0.23-0.22-0.47-0.35-0.7
		c-0.11-0.23-0.22-0.47-0.35-0.7c-0.31-0.65-0.67-1.28-1.13-1.87c-2.25-2.91-5.99-4.58-10.27-4.58c-0.21,0-0.42,0-0.71,0.01
		c-3.53,0.17-7.2,1.53-10.41,3.69c-2.04-2.21-4.97-3.52-8.4-3.7c-0.21-0.01-0.42-0.01-0.64-0.01c-6.14,0-12.65,3.24-16.6,8.26
		c-0.03,0.03-0.05,0.07-0.08,0.1c-0.82,1.09-2.14,1.75-2.6,1.81l-12.07,0c-3.61,0-7.5,1.54-10.68,4.05
		c-2.77-2.62-6.63-4.04-11.04-4.05h-52.18c-4.39,0-9.19,1.41-13.68,3.88c-1.96-2.48-5-3.88-8.52-3.88h-28.58
		c-0.04-0.08-0.08-0.16-0.13-0.23c-0.11-0.23-0.22-0.47-0.35-0.7c-0.11-0.23-0.22-0.47-0.35-0.7c-0.11-0.23-0.22-0.47-0.35-0.7
		c-0.11-0.23-0.22-0.47-0.35-0.7c-0.11-0.23-0.22-0.47-0.35-0.7c-0.32-0.66-0.69-1.3-1.15-1.89c-2.25-2.89-5.98-4.54-10.24-4.54
		c-0.21,0-0.42,0-0.71,0.01c-6.39,0.31-13.22,4.52-17.01,10.31c-2.52-1.74-5.69-2.71-9.22-2.75c-0.08,0-0.15,0-0.23,0l-43.79,0
		c-0.04-0.07-0.08-0.14-0.12-0.22c-0.11-0.24-0.22-0.47-0.35-0.7c-0.11-0.23-0.22-0.47-0.35-0.7c-0.11-0.24-0.22-0.47-0.35-0.7
		c-0.11-0.23-0.22-0.47-0.35-0.7c-0.11-0.23-0.22-0.47-0.35-0.7c-0.31-0.65-0.67-1.28-1.13-1.87c-2.25-2.91-5.99-4.58-10.27-4.58
		c-0.21,0-0.42,0-0.71,0.01c-7.06,0.34-14.67,5.45-18.1,12.2c-1.7,3.4-2.14,6.94-1.24,10.05c-0.13,0.31-0.4,0.81-0.92,1.41
		l-8.68,9.78c-5.27,5.94-6.92,13.01-4.31,18.46l18.22,38.02c0.03,0.05,0.06,0.1,0.09,0.15l0.26,0.55c0.03,0.05,0.06,0.1,0.09,0.15
		l0.26,0.54c0.03,0.05,0.06,0.1,0.09,0.16l0.26,0.54c0.03,0.05,0.06,0.1,0.09,0.15l0.26,0.55c0.03,0.05,0.06,0.1,0.09,0.16
		l0.26,0.54c0.03,0.05,0.06,0.1,0.09,0.15l0.26,0.55c0.03,0.05,0.06,0.1,0.09,0.15l0.26,0.54c0.03,0.05,0.06,0.1,0.09,0.16
		l0.26,0.54c0.03,0.05,0.06,0.1,0.09,0.15l0.26,0.55c0.03,0.05,0.06,0.1,0.09,0.16l0.26,0.54c0.03,0.05,0.06,0.1,0.09,0.15
		l0.26,0.55c0.03,0.05,0.06,0.1,0.09,0.15l0.26,0.54c0.03,0.05,0.06,0.1,0.09,0.16l0.26,0.54c0.03,0.05,0.06,0.1,0.09,0.15
		l0.26,0.55c0.03,0.05,0.06,0.1,0.09,0.16l0.26,0.54c0.03,0.05,0.06,0.1,0.09,0.15l0.26,0.55c0.03,0.05,0.06,0.1,0.09,0.15
		l0.26,0.54c0.03,0.05,0.06,0.1,0.09,0.16l0.26,0.54c0.03,0.05,0.06,0.1,0.09,0.15l0.26,0.55c0.03,0.05,0.06,0.1,0.09,0.16
		l0.26,0.54c1.73,3.61,5.35,5.76,9.69,5.76c0.31,0,0.63-0.01,0.96-0.03c3.26-0.23,6.66-1.64,9.64-4.01
		c5.71-4.64,7.89-11.45,5.34-16.6l-11.17-23.3h44.02c4.64,0,9.56-1.54,14.04-4.15c2.12,4.14,6.53,6.74,11.9,6.74
		c0,0,10.76,0,10.76,0c3.17,0,6.57-1.17,9.58-3.28c2.9-2.04,5.18-4.78,6.42-7.71c0.02-0.05,0.04-0.1,0.06-0.14
		c0.56-1.41,0.86-2.84,0.92-4.23h19.54c0.02,0.03,0.03,0.07,0.05,0.1c0.01,0.02,0.01,0.03,0.02,0.05c0.1,0.22,0.22,0.44,0.33,0.65
		c0.01,0.02,0.01,0.03,0.02,0.05c0.1,0.22,0.22,0.44,0.33,0.65c0.01,0.02,0.01,0.03,0.02,0.05c0.1,0.22,0.22,0.44,0.33,0.65
		c0.01,0.02,0.01,0.03,0.02,0.05c0.1,0.22,0.22,0.44,0.33,0.65c0.01,0.02,0.01,0.03,0.02,0.05c0.1,0.22,0.22,0.44,0.33,0.65
		c0.01,0.02,0.01,0.03,0.02,0.05c0.1,0.22,0.22,0.44,0.33,0.65c0.01,0.02,0.01,0.03,0.02,0.05c0.1,0.22,0.22,0.44,0.33,0.65
		c0.01,0.02,0.01,0.03,0.02,0.05c0.1,0.22,0.22,0.44,0.33,0.65c0.01,0.02,0.01,0.03,0.02,0.05c0.1,0.22,0.22,0.44,0.33,0.65
		c0.01,0.02,0.01,0.03,0.02,0.05c0.1,0.22,0.22,0.44,0.33,0.65c0.01,0.02,0.01,0.03,0.02,0.05c2.36,5.12,7.59,8.19,14.02,8.21
		c0,0,26.35,0,41.6,0l-9.88,6.51c-5.88,3.94-9.05,10.23-7.89,15.66c0.04,0.18,0.08,0.36,0.14,0.54c0.21,0.71,0.5,1.37,0.84,1.99
		c0.11,0.24,0.22,0.47,0.35,0.7c0.11,0.24,0.22,0.47,0.35,0.7c0.11,0.24,0.22,0.47,0.35,0.7c0.11,0.24,0.23,0.47,0.35,0.7
		c0.11,0.24,0.22,0.47,0.35,0.7c0.11,0.24,0.22,0.47,0.35,0.7c0.11,0.24,0.22,0.47,0.35,0.7c0.11,0.24,0.22,0.47,0.35,0.7
		c0.11,0.24,0.23,0.47,0.35,0.7c0.11,0.24,0.22,0.47,0.35,0.7c0.11,0.24,0.22,0.47,0.35,0.7c0.11,0.24,0.22,0.47,0.35,0.7
		c0.11,0.24,0.22,0.47,0.35,0.7c0.11,0.24,0.23,0.47,0.35,0.7c0.11,0.24,0.22,0.47,0.35,0.7c0.11,0.24,0.22,0.47,0.35,0.7
		c0.11,0.24,0.22,0.47,0.35,0.7c0.11,0.24,0.22,0.47,0.35,0.7c0.11,0.24,0.23,0.47,0.35,0.7c1.57,3.48,4.95,5.71,9.12,5.92
		c0.21,0.01,0.43,0.02,0.65,0.02c2.98,0,6.21-1.05,9.09-2.94l57.16-37.68c0.01,0.01,0.01,0.02,0.02,0.03l0.26,0.54
		c0.03,0.05,0.06,0.1,0.09,0.16l0.26,0.54c0.03,0.05,0.06,0.1,0.09,0.16l0.26,0.54c0.03,0.05,0.06,0.1,0.09,0.16l0.26,0.54
		c0.03,0.05,0.06,0.1,0.09,0.16l0.26,0.54c0.03,0.05,0.06,0.1,0.09,0.16l0.26,0.54c0.03,0.05,0.06,0.1,0.09,0.16l0.26,0.54
		c0.03,0.05,0.06,0.1,0.09,0.16l0.26,0.54c0.03,0.05,0.06,0.1,0.09,0.16l0.26,0.54c0.03,0.05,0.06,0.1,0.09,0.16l0.26,0.54
		c0.03,0.05,0.06,0.1,0.09,0.16l0.26,0.54c0.03,0.05,0.06,0.1,0.09,0.16l0.26,0.54c0.03,0.05,0.06,0.1,0.09,0.16l0.26,0.54
		c0.03,0.05,0.06,0.1,0.09,0.16l0.26,0.54c1.73,3.61,5.35,5.76,9.69,5.76c0.31,0,0.63-0.01,0.96-0.03c3.26-0.23,6.66-1.64,9.64-4.01
		c5.03-4.09,7.32-9.87,6.04-14.71h44.28c5.61-0.05,11.63-2.35,16.77-6.06c2.71,3.83,7.33,6.06,12.8,6.06h60.26
		c6,0,12.5-4.16,15.48-9.88c1.43-2.76,1.88-5.62,1.35-8.21c0.97-0.61,1.9-1.32,2.77-2.11c0.22-0.2,0.42-0.4,0.63-0.61l5.62,11.74
		c0.03,0.05,0.06,0.1,0.09,0.16l0.26,0.54c0.03,0.06,0.06,0.1,0.09,0.16l0.26,0.54c0.03,0.06,0.06,0.1,0.09,0.16l0.26,0.54
		c0.03,0.05,0.06,0.1,0.09,0.16l0.26,0.54c0.03,0.06,0.06,0.1,0.09,0.16l0.26,0.54c0.03,0.05,0.06,0.1,0.09,0.16l0.26,0.54
		c0.03,0.06,0.06,0.1,0.09,0.16l0.26,0.54c0.03,0.06,0.06,0.1,0.09,0.16l0.26,0.54c0.03,0.05,0.06,0.1,0.09,0.16l0.26,0.54
		c0.03,0.06,0.06,0.1,0.09,0.16l0.26,0.54c0.03,0.05,0.06,0.1,0.09,0.16l0.26,0.54c0.03,0.06,0.06,0.1,0.09,0.16l0.26,0.54
		c0.03,0.06,0.06,0.1,0.09,0.16l0.26,0.54c0.03,0.05,0.06,0.1,0.09,0.16l0.26,0.54c0.03,0.06,0.06,0.1,0.09,0.16l0.26,0.54
		c0.03,0.05,0.06,0.1,0.09,0.16l0.26,0.54c0.03,0.06,0.06,0.1,0.09,0.16l0.26,0.54c0.03,0.06,0.06,0.1,0.09,0.16l0.26,0.54
		c0.03,0.05,0.06,0.1,0.09,0.16l0.26,0.54c0.03,0.06,0.06,0.1,0.09,0.16l0.26,0.54c1.73,3.61,5.35,5.77,9.69,5.77
		c0.21,0,0.42-0.01,0.64-0.02c3.17-0.15,6.51-1.44,9.42-3.61c0.06-0.04,0.12-0.09,0.18-0.14c5.88-4.69,8.19-11.42,5.76-16.75
		c-0.02-0.04-10.04-20.96-10.04-20.96h3.07c0.07,0.14,0.14,0.27,0.21,0.4c0.11,0.24,0.23,0.47,0.35,0.7
		c0.11,0.24,0.23,0.47,0.35,0.7c0.11,0.24,0.23,0.47,0.35,0.7c0.11,0.24,0.23,0.47,0.35,0.7c0.11,0.24,0.23,0.47,0.35,0.7
		c0.11,0.24,0.23,0.47,0.35,0.7c0.11,0.24,0.23,0.47,0.35,0.7c0.11,0.24,0.23,0.47,0.35,0.7c0.11,0.24,0.23,0.47,0.35,0.7
		c0.11,0.24,0.23,0.47,0.35,0.7c0.11,0.24,0.23,0.47,0.35,0.7c2.01,4.44,6.56,7.26,12.15,7.26h3.24c0.26,0.03,0.53,0.05,0.8,0.06
		c0.09,0,0.18,0.01,0.28,0.01h14.06c0.02,0.03,0.03,0.07,0.05,0.1c0.1,0.24,0.23,0.47,0.35,0.7c0.1,0.24,0.23,0.47,0.35,0.7
		c0.1,0.24,0.23,0.47,0.35,0.7c0.1,0.24,0.23,0.47,0.35,0.7c0.1,0.24,0.23,0.47,0.35,0.7c0.1,0.24,0.23,0.47,0.35,0.7
		c0.1,0.24,0.23,0.47,0.35,0.7c0.1,0.24,0.23,0.47,0.35,0.7c0.1,0.24,0.23,0.47,0.35,0.7c0.1,0.24,0.23,0.47,0.35,0.7
		c0.1,0.24,0.23,0.47,0.35,0.7c0.1,0.24,0.23,0.47,0.35,0.7c0.1,0.24,0.23,0.47,0.35,0.7c0.19,0.43,0.4,0.86,0.65,1.27
		c1.89,3.11,5.25,4.9,9.23,4.9h0.21c0.04,0.08,0.08,0.16,0.13,0.23c0.11,0.23,0.22,0.47,0.35,0.7c0.11,0.23,0.22,0.47,0.35,0.7
		c0.11,0.23,0.22,0.47,0.35,0.7c0.11,0.23,0.22,0.47,0.35,0.7c0.11,0.23,0.22,0.47,0.35,0.7c0.32,0.66,0.69,1.3,1.15,1.89
		c2.25,2.89,5.98,4.54,10.24,4.54c0.21,0,0.42,0,0.71-0.01c7.06-0.34,14.67-5.45,18.1-12.2c1.72-3.43,2.14-7,1.22-10.12
		c0.13-0.27,0.37-0.68,0.79-1.17l2.3-2.57C1465.68,554.07,1467.68,548.46,1466.84,543.5z"/>
	<path d="M854.68,517.43c-0.11-0.24-0.22-0.47-0.35-0.7c-0.11-0.24-0.22-0.47-0.35-0.7c-0.11-0.24-0.22-0.47-0.35-0.7
		c-0.11-0.24-0.22-0.47-0.35-0.7c-0.11-0.24-0.22-0.47-0.35-0.7c-0.11-0.24-0.22-0.47-0.35-0.7c-0.11-0.24-0.22-0.47-0.35-0.7
		c-0.11-0.24-0.22-0.47-0.35-0.7c-0.11-0.24-0.22-0.47-0.35-0.7c-0.11-0.24-0.22-0.47-0.35-0.7c-0.11-0.24-0.22-0.47-0.35-0.7
		c-0.11-0.24-0.22-0.47-0.35-0.7c-0.11-0.24-0.22-0.47-0.35-0.7c-0.11-0.24-0.22-0.47-0.35-0.7c-0.11-0.24-0.22-0.47-0.35-0.7
		c-0.11-0.24-0.22-0.47-0.35-0.7c-0.11-0.24-0.22-0.47-0.35-0.7c-0.11-0.24-0.22-0.47-0.35-0.7c-0.27-0.59-0.58-1.15-0.95-1.69
		c-2.17-3.08-5.82-4.85-10.01-4.85c-0.79,0-1.62,0.06-2.44,0.19c-7.46,1.12-14.95,7.21-17.43,14.16c-0.8,2.24-1.04,4.48-0.76,6.57
		h-0.02c-5.64,0-11.7,2.28-16.88,5.99c-2.72-3.79-7.33-5.99-12.76-5.99h-3.56l9.88-6.51c5.89-3.94,9.06-10.23,7.89-15.67
		c-0.04-0.18-0.09-0.36-0.14-0.54c-0.21-0.7-0.5-1.36-0.84-1.98c-0.11-0.24-0.22-0.47-0.35-0.7c-0.11-0.24-0.23-0.47-0.35-0.7
		c-0.11-0.24-0.22-0.47-0.35-0.7c-0.11-0.24-0.22-0.47-0.35-0.7c-0.11-0.24-0.23-0.47-0.35-0.7c-0.11-0.24-0.22-0.47-0.35-0.7
		c-0.11-0.24-0.23-0.47-0.35-0.7c-0.11-0.24-0.22-0.47-0.35-0.7c-0.11-0.24-0.22-0.47-0.35-0.7c-0.11-0.24-0.23-0.47-0.35-0.7
		c-0.11-0.24-0.22-0.47-0.35-0.7c-0.11-0.24-0.23-0.47-0.35-0.7c-0.11-0.24-0.22-0.47-0.35-0.7c-0.11-0.24-0.22-0.47-0.35-0.7
		c-0.11-0.24-0.23-0.47-0.35-0.7c-0.11-0.24-0.22-0.47-0.35-0.7c-0.11-0.24-0.23-0.47-0.35-0.7c-0.11-0.24-0.22-0.47-0.35-0.7
		c-0.11-0.24-0.22-0.47-0.35-0.7c-1.57-3.48-4.95-5.71-9.12-5.92c-0.21-0.01-0.43-0.02-0.65-0.02c-2.98,0-6.21,1.05-9.09,2.94
		l-57.67,38.02c-2.65,1.75-4.96,3.91-6.78,6.27c-2.35-2.08-5.57-3.29-9.23-3.29h-6.11c-0.03-0.05-0.05-0.1-0.08-0.16
		c-0.1-0.24-0.23-0.47-0.35-0.7c-0.1-0.24-0.23-0.47-0.35-0.7c-0.1-0.24-0.23-0.47-0.35-0.7c-0.1-0.24-0.23-0.47-0.35-0.7
		c-0.1-0.24-0.23-0.47-0.35-0.7c-0.1-0.24-0.23-0.47-0.35-0.7c-0.1-0.24-0.23-0.47-0.35-0.7c-0.1-0.24-0.23-0.47-0.35-0.7
		c-0.1-0.24-0.23-0.47-0.35-0.7c-0.1-0.24-0.23-0.47-0.35-0.7c-0.1-0.24-0.23-0.47-0.35-0.7c-0.1-0.24-0.23-0.47-0.35-0.7
		c-0.1-0.24-0.23-0.47-0.35-0.7c-0.19-0.44-0.4-0.86-0.65-1.27c-1.89-3.11-5.25-4.9-9.23-4.9H668.1c-0.04-0.08-0.08-0.16-0.13-0.23
		c-0.11-0.23-0.22-0.47-0.35-0.7c-0.11-0.23-0.22-0.47-0.35-0.7c-0.11-0.23-0.22-0.47-0.35-0.7c-0.11-0.23-0.22-0.47-0.35-0.7
		c-0.11-0.23-0.22-0.47-0.35-0.7c-0.32-0.66-0.69-1.3-1.15-1.89c-2.25-2.89-5.98-4.54-10.24-4.54c-0.21,0-0.42,0-0.71,0.02
		c-7.06,0.34-14.67,5.45-18.1,12.2c-1.72,3.43-2.15,7-1.22,10.12c-0.13,0.27-0.37,0.68-0.79,1.17l-2.3,2.56
		c-0.65,0.72-1.24,1.46-1.79,2.22c-2.57-1.75-5.78-2.69-9.36-2.69h-52.18c-1.54,0-3.13,0.19-4.75,0.52c-0.05-0.1-0.1-0.2-0.15-0.3
		c-0.11-0.24-0.23-0.47-0.35-0.7c-0.11-0.24-0.23-0.47-0.35-0.7c-0.11-0.24-0.23-0.47-0.35-0.7c-0.11-0.24-0.23-0.47-0.35-0.7
		c-0.11-0.24-0.23-0.47-0.35-0.7c-0.11-0.24-0.23-0.47-0.35-0.7c-0.11-0.24-0.23-0.47-0.35-0.7c-0.11-0.24-0.23-0.47-0.35-0.7
		c-0.11-0.24-0.23-0.47-0.35-0.7c-0.15-0.33-0.31-0.66-0.49-0.98c-1.94-3.4-5.5-5.48-9.87-5.7c-0.21-0.01-0.42-0.01-0.63-0.01
		c-6.14,0-12.65,3.24-16.6,8.26c-0.03,0.03-0.05,0.07-0.08,0.1c-0.82,1.09-2.14,1.75-2.6,1.81l-12.07,0
		c-5.51,0-11.66,3.59-14.96,8.73c-0.02,0.03-0.04,0.07-0.07,0.1c-2.22,3.59-2.75,7.56-1.47,10.9c0.17,0.43,0.36,0.84,0.58,1.23
		c0.11,0.24,0.23,0.47,0.35,0.7c0.11,0.24,0.23,0.47,0.35,0.7c0.11,0.24,0.22,0.47,0.35,0.7c0.11,0.24,0.23,0.47,0.35,0.7
		c0.11,0.24,0.22,0.47,0.35,0.7c0.11,0.24,0.23,0.47,0.35,0.7c0.11,0.24,0.23,0.47,0.35,0.7c0.11,0.24,0.22,0.47,0.35,0.7
		c0.11,0.24,0.23,0.47,0.35,0.7c0.11,0.24,0.22,0.47,0.35,0.7c0.11,0.24,0.23,0.47,0.35,0.7c0.11,0.24,0.23,0.47,0.35,0.7
		c0.11,0.24,0.22,0.47,0.35,0.7c0.11,0.24,0.23,0.47,0.35,0.7c0.11,0.24,0.22,0.47,0.35,0.7c0.11,0.24,0.23,0.47,0.35,0.7
		c0.11,0.24,0.23,0.47,0.35,0.7c0.11,0.24,0.22,0.47,0.35,0.7c0.11,0.24,0.23,0.47,0.35,0.7c0.12,0.27,0.25,0.53,0.4,0.79
		L468.1,578.7c-5.88,3.93-9.05,10.23-7.89,15.66c0.04,0.18,0.09,0.37,0.14,0.54c0.21,0.7,0.5,1.36,0.84,1.98
		c0.11,0.24,0.23,0.47,0.35,0.7c0.11,0.24,0.23,0.47,0.35,0.7c0.11,0.24,0.22,0.47,0.35,0.7c0.11,0.24,0.23,0.47,0.35,0.7
		c0.11,0.24,0.22,0.47,0.35,0.7c0.11,0.24,0.23,0.47,0.35,0.7c0.11,0.24,0.23,0.47,0.35,0.7c0.11,0.24,0.22,0.47,0.35,0.7
		c0.11,0.24,0.23,0.47,0.35,0.7c0.11,0.24,0.22,0.47,0.35,0.7c0.11,0.24,0.23,0.47,0.35,0.7c0.11,0.24,0.23,0.47,0.35,0.7
		c0.11,0.24,0.22,0.47,0.35,0.7c0.11,0.24,0.23,0.47,0.35,0.7c0.11,0.24,0.22,0.47,0.35,0.7c0.11,0.24,0.23,0.47,0.35,0.7
		c0.11,0.24,0.23,0.47,0.35,0.7c0.11,0.24,0.22,0.47,0.35,0.7c0.11,0.24,0.23,0.47,0.35,0.7c1.57,3.48,4.95,5.71,9.12,5.92
		c0.21,0.01,0.43,0.02,0.65,0.02c2.98,0,6.21-1.05,9.09-2.94l57.67-38.02c1.96-1.29,3.73-2.8,5.25-4.45
		c2.75,2.59,6.61,4.05,11.04,4.07c0,0,52.17,0,52.18,0c7.85,0,16.99-4.51,23.33-11.52c1.49-1.68,2.77-3.45,3.8-5.28
		c1.86,0.89,4.01,1.38,6.33,1.38h3.24c0.26,0.03,0.53,0.05,0.8,0.06c0.09,0,0.18,0.01,0.28,0.01h14.06c0.02,0.03,0.03,0.07,0.05,0.1
		c0.1,0.24,0.23,0.47,0.35,0.7c0.1,0.24,0.23,0.47,0.35,0.7c0.1,0.24,0.23,0.47,0.35,0.7c0.1,0.24,0.23,0.47,0.35,0.7
		c0.1,0.24,0.23,0.47,0.35,0.7c0.1,0.24,0.23,0.47,0.35,0.7c0.1,0.24,0.23,0.47,0.35,0.7c0.1,0.24,0.23,0.47,0.35,0.7
		c0.1,0.24,0.23,0.47,0.35,0.7c0.1,0.24,0.23,0.47,0.35,0.7c0.1,0.24,0.23,0.47,0.35,0.7c0.1,0.24,0.23,0.47,0.35,0.7
		c0.1,0.24,0.23,0.47,0.35,0.7c0.19,0.43,0.4,0.86,0.65,1.27c1.89,3.11,5.25,4.9,9.23,4.9h0.21c0.04,0.08,0.08,0.16,0.13,0.24
		c0.11,0.23,0.22,0.47,0.35,0.7c0.11,0.23,0.22,0.47,0.35,0.7c0.11,0.23,0.22,0.47,0.35,0.7c0.11,0.23,0.22,0.47,0.35,0.7
		c0.11,0.23,0.22,0.47,0.35,0.7c0.32,0.66,0.69,1.3,1.15,1.89c2.25,2.89,5.98,4.54,10.24,4.54c0.21,0,0.42,0,0.71-0.01
		c3.4-0.16,6.93-1.43,10.05-3.46c2.03,2.07,4.87,3.3,8.18,3.46c0.21,0.01,0.42,0.01,0.64,0.01c6.14,0,12.65-3.24,16.6-8.26
		c0.03-0.03,0.05-0.07,0.08-0.1c0.83-1.09,2.15-1.75,2.6-1.81h1.84c6,0,12.51-4.16,15.48-9.88c0.94-1.82,1.46-3.68,1.55-5.48h4.87
		c0.02,0.03,0.03,0.07,0.05,0.1c0.1,0.24,0.23,0.47,0.35,0.7c0.1,0.24,0.23,0.47,0.35,0.7c0.1,0.24,0.23,0.47,0.35,0.7
		c0.1,0.24,0.23,0.47,0.35,0.7c0.1,0.24,0.23,0.47,0.35,0.7c0.1,0.24,0.23,0.47,0.35,0.7c0.1,0.24,0.23,0.47,0.35,0.7
		c0.1,0.24,0.23,0.47,0.35,0.7c0.1,0.24,0.23,0.47,0.35,0.7c0.1,0.24,0.23,0.47,0.35,0.7c0.1,0.24,0.23,0.47,0.35,0.7
		c0.1,0.24,0.23,0.47,0.35,0.7c0.1,0.24,0.23,0.47,0.35,0.7c0.19,0.43,0.4,0.86,0.65,1.27c1.89,3.11,5.25,4.9,9.23,4.9h10.13
		c5.03,0,10.6-1.84,15.68-5.19c0.4-0.26,0.8-0.54,1.19-0.82c2.73,3.83,7.32,6.01,12.77,6.01h27.25c6,0,12.5-4.16,15.48-9.88
		c1.93-3.72,2.05-7.61,0.41-10.8c-0.1-0.24-0.23-0.47-0.35-0.7c-0.1-0.24-0.23-0.47-0.35-0.7c-0.1-0.24-0.23-0.47-0.35-0.7
		c-0.09-0.21-0.2-0.41-0.31-0.61c0.42-0.6,0.8-1.21,1.14-1.85c1.92-3.71,2.05-7.59,0.42-10.78c-0.1-0.24-0.23-0.47-0.35-0.7
		c-0.1-0.24-0.23-0.47-0.35-0.7c-0.1-0.24-0.23-0.47-0.35-0.7c-0.1-0.24-0.23-0.47-0.35-0.7c-0.05-0.12-0.12-0.24-0.18-0.36
		c1.94-2.08,3.48-4.45,4.37-6.94c1.34-3.75,1.11-7.52-0.57-10.54C854.92,517.89,854.81,517.66,854.68,517.43z"/>
</g>
<path class="st5" d="M542.98,534.58l-1.5,9.96c-0.57,3.75-3.67,7.96-7.96,10.79l-57.67,38.02c-1.85,1.22-3.86,1.87-5.53,1.78
	c-1.67-0.08-2.86-0.89-3.26-2.23c-0.55-2.56,1.54-6.11,4.94-8.38l49.83-32.85c4.03-2.66,6.89-6.65,7.26-10.12
	c0.37-3.47-1.84-5.73-5.59-5.73h-11.98c-1.72,0-2.98-0.73-3.48-2.01c-0.49-1.28-0.17-2.98,0.89-4.7c2.04-3.19,6-5.56,9.18-5.51
	h12.08c2.74-0.05,6.06-1.93,8.06-4.58c3.07-3.91,8.02-5.71,11.46-5.58c4.32,0.22,5.87,3.9,3.52,8.35c-1.04,1.94-2.73,3.8-4.77,5.26
	C545.53,529.08,543.42,531.97,542.98,534.58z M628.76,535.36c-0.25,1.57-0.83,3.23-1.73,4.9c-0.8,1.49-1.85,2.96-3.09,4.35
	c-5.01,5.55-12.23,9.2-18.15,9.18h-52.13c-3.69-0.01-6.44-1.5-7.66-4.14c-1.22-2.64-0.79-6.21,1.19-9.9
	c0.8-1.49,1.85-2.96,3.09-4.36c5.01-5.54,12.23-9.2,18.15-9.17h52.13C626.37,526.21,629.65,529.87,628.76,535.36z M607.23,539.2
	c-0.03-0.49-0.42-0.79-1-0.78h-36.61c-0.86,0.02-1.91,0.72-2.35,1.58c-0.44,0.85-0.13,1.55,0.71,1.58h36.61
	c0.56,0.02,1.25-0.28,1.8-0.78C606.95,540.3,607.27,539.69,607.23,539.2z M701.2,542.83l2.35-2.62c2.85-3.18,4.27-6.74,3.79-9.54
	c-0.48-2.8-2.78-4.46-6.18-4.46h-44.39c-0.21-0.03-0.42-0.05-0.65-0.06h-1.34c-0.58,0.02-0.96-0.28-0.99-0.78
	c-0.03-0.49,0.28-1.11,0.83-1.6c0.55-0.49,1.24-0.79,1.8-0.78h17.78c3.37,0,7.51-2.73,9.26-6.11c1.75-3.37,0.44-6.11-2.93-6.11
	h-17.11c-2.69-0.05-4.06-1.93-3.32-4.58c0.99-3.91-2.09-5.71-5.67-5.58c-4.54,0.22-9.92,3.9-12.18,8.34
	c-0.97,1.94-1.22,3.8-0.68,5.26c0.83,2.02-0.07,4.92-2.33,7.52l-2.35,2.62c-2.85,3.18-4.27,6.74-3.79,9.54
	c0.48,2.8,2.78,4.47,6.17,4.47h3.68c0.21,0.03,0.42,0.05,0.64,0.06h42.05c0.58-0.02,0.96,0.28,1,0.78c0.04,0.49-0.28,1.11-0.83,1.6
	c-0.55,0.49-1.24,0.79-1.8,0.78h-5.54c-3.37,0-7.51,2.73-9.26,6.11c-1.75,3.37-0.44,6.11,2.93,6.11h4.87
	c2.69,0.05,4.06,1.93,3.32,4.58c-0.99,3.91,2.09,5.72,5.67,5.58c4.54-0.22,9.92-3.9,12.18-8.34c0.97-1.94,1.21-3.8,0.68-5.26
	C698.05,548.33,698.94,545.44,701.2,542.83z M794.78,530.25c-1.24-2.59-3.99-4.04-7.64-4.04h-53.57c-0.85-0.01-1.19-0.69-0.76-1.54
	c0.42-0.85,1.45-1.57,2.33-1.61c1.03-0.01,2.22-0.41,3.34-1.11l44.09-29.06c3.4-2.27,5.49-5.82,4.94-8.38
	c-0.4-1.33-1.58-2.14-3.26-2.23c-1.67-0.08-3.69,0.56-5.53,1.78l-57.67,38.02c-4.29,2.83-7.4,7.04-7.96,10.79l-1.5,9.96
	c-0.45,2.61-2.55,5.5-5.48,7.52c-2.04,1.45-3.73,3.32-4.77,5.26c-2.35,4.44-0.79,8.13,3.52,8.34c3.43,0.13,8.39-1.67,11.46-5.58
	c2.01-2.65,5.33-4.53,8.07-4.58h1.95c3.37,0,7.51-2.73,9.26-6.11c1.75-3.37,0.44-6.11-2.93-6.11h-9.3c-0.58,0.01-0.96-0.28-1-0.78
	c-0.03-0.49,0.28-1.11,0.83-1.6c0.55-0.49,1.24-0.79,1.8-0.78h47.81c0.84,0.02,1.16,0.72,0.71,1.58c-0.44,0.86-1.49,1.55-2.35,1.58
	h-2.15c-3.37,0-7.51,2.73-9.26,6.11c-1.75,3.37-0.44,6.11,2.93,6.11h10.13c3.65,0,7.91-1.45,11.83-4.04
	c3.92-2.58,7.19-6.09,9.09-9.75S796.02,532.83,794.78,530.25z M818.18,538.42h11.81c3.36-0.04,7.45-2.77,9.18-6.11
	c1.73-3.34,0.47-6.06-2.84-6.11h-19.55c-7.6,0-16.96,6.17-20.92,13.79c-3.95,7.62-0.99,13.79,6.61,13.79h27.25
	c3.37,0,7.51-2.73,9.26-6.11c1.75-3.37,0.44-6.11-2.93-6.11h-19.5c-0.58,0.02-0.96-0.28-1-0.78c-0.03-0.49,0.28-1.11,0.83-1.6
	C816.93,538.7,817.62,538.41,818.18,538.42z M836.02,505.4c-4.93,0.74-10.25,5.03-11.88,9.59c-1.63,4.56,1.05,7.65,5.99,6.91
	c4.93-0.74,10.25-5.03,11.88-9.59C843.63,507.76,840.95,504.66,836.02,505.4z M974.47,537.41c-3.95,7.61-13.32,13.79-20.92,13.79
	h-53.56c-0.56-0.02-1.25,0.28-1.8,0.78c-0.55,0.49-0.87,1.11-0.83,1.6c0.03,0.49,0.41,0.79,1,0.78c1.01,0,1.76,0.4,2.11,1.11
	l13.95,29.11c1.09,2.15-0.38,5.58-3.47,8.08c-1.8,1.43-3.89,2.33-5.72,2.46s-3.24-0.51-3.84-1.77l-18.22-38.02
	c-1.35-2.83-0.09-7.04,3.24-10.79l8.67-9.77c2.33-2.68,3.28-5.67,2.48-7.78c-0.5-1.44-0.25-3.28,0.71-5.19
	c2.26-4.44,7.64-8.12,12.18-8.34c3.59-0.14,6.69,1.69,5.65,5.65c-0.73,2.63,0.64,4.49,3.33,4.52h48.45l0,0
	C975.46,523.62,978.42,529.79,974.47,537.41z M954.53,536.6c-0.03-0.49-0.42-0.79-1-0.78h-47.81c-0.86,0.02-1.91,0.72-2.35,1.58
	c-0.44,0.85-0.13,1.55,0.71,1.58h47.81c0.56,0.01,1.25-0.28,1.8-0.78S954.57,537.1,954.53,536.6z M996.63,538.42h33.91
	c3.37,0,7.51-2.73,9.26-6.11c1.75-3.37,0.44-6.11-2.93-6.11h-33.24c-2.69-0.05-4.06-1.93-3.32-4.58c0.99-3.91-2.09-5.72-5.67-5.58
	c-4.54,0.22-9.92,3.9-12.18,8.34c-0.97,1.94-1.22,3.8-0.68,5.26c0.83,2.02-0.07,4.92-2.33,7.52l-2.35,2.61
	c-2.85,3.18-4.27,6.74-3.79,9.54c0.47,2.8,2.78,4.47,6.17,4.47h10.76c1.72,0,3.74-0.73,5.56-2.01s3.27-2.98,3.99-4.7
	c1.26-3.19-0.24-5.56-3.47-5.51h-1.34c-0.58,0.02-0.96-0.28-1-0.78c-0.03-0.49,0.28-1.11,0.83-1.6
	C995.38,538.7,996.06,538.4,996.63,538.42z M1096.49,553.78h-52.13c-3.69-0.01-6.44-1.5-7.66-4.14c-1.21-2.64-0.79-6.21,1.19-9.9
	c0.8-1.49,1.85-2.96,3.09-4.36c5.01-5.54,12.23-9.2,18.15-9.17h52.13c5.81,0,9.09,3.67,8.2,9.15c-0.25,1.57-0.83,3.23-1.73,4.9
	c-0.8,1.49-1.85,2.96-3.09,4.35C1109.63,550.15,1102.41,553.81,1096.49,553.78z M1095.3,541.57c0.56,0.02,1.25-0.28,1.8-0.78
	c0.55-0.49,0.87-1.11,0.83-1.6s-0.42-0.79-1-0.78h-36.61c-0.87,0.02-1.91,0.72-2.35,1.58s-0.13,1.55,0.71,1.58H1095.3z
	 M1157.96,537.16c0.45-2.61,2.55-5.5,5.48-7.52c2.04-1.45,3.73-3.32,4.77-5.26c2.35-4.44,0.79-8.12-3.52-8.34
	c-3.43-0.14-8.38,1.67-11.46,5.58c-2,2.65-5.32,4.53-8.07,4.58h-12.08c-3.17-0.05-7.14,2.32-9.18,5.51
	c-1.06,1.72-1.38,3.42-0.89,4.7c0.49,1.28,1.75,2.01,3.47,2.01h11.98c5.12,0,7.11,4.16,4.45,9.28c-1.28,2.46-3.48,4.82-6.12,6.56
	l-49.83,32.85c-3.4,2.27-5.48,5.82-4.93,8.38c0.4,1.33,1.58,2.14,3.26,2.23c1.67,0.08,3.69-0.56,5.53-1.78l57.67-38.02
	c4.29-2.83,7.4-7.04,7.96-10.79L1157.96,537.16z M1248.01,540c-3.93,7.57-13.21,13.72-20.79,13.79h-53.56
	c-0.87,0.02-1.91,0.72-2.35,1.58s-0.13,1.55,0.71,1.58c1.01,0,1.77,0.4,2.11,1.11l1.88,3.93c1.09,2.14-0.38,5.58-3.47,8.08
	c-1.8,1.43-3.89,2.33-5.72,2.46s-3.24-0.51-3.84-1.77l-6.15-12.83c-1.35-2.83-0.09-7.04,3.24-10.79l8.67-9.77
	c2.33-2.68,3.28-5.67,2.48-7.78c-0.5-1.44-0.25-3.28,0.71-5.19c2.26-4.44,7.64-8.12,12.18-8.34c3.59-0.14,6.69,1.69,5.65,5.65
	c-0.73,2.63,0.64,4.49,3.33,4.52h48.45C1249.05,526.28,1251.94,532.43,1248.01,540z M1227.21,538.42h-47.81
	c-0.56-0.02-1.25,0.28-1.8,0.78c-0.55,0.49-0.86,1.11-0.83,1.6c0.04,0.49,0.42,0.79,1,0.78h47.81c0.86-0.02,1.91-0.72,2.35-1.58
	C1228.36,539.14,1228.05,538.44,1227.21,538.42z M1331.42,526.21h-59.79c-7.57-0.09-16.98,5.9-21.24,13.53
	c-1.99,3.7-2.42,7.27-1.21,9.92c1.22,2.64,3.98,4.13,7.68,4.13h60.26c3.37,0,7.51-2.73,9.26-6.11c1.75-3.37,0.44-6.1-2.93-6.1
	h-52.27c-0.58,0.02-0.96-0.28-1-0.78c-0.03-0.49,0.28-1.11,0.83-1.6c0.55-0.49,1.24-0.79,1.8-0.78h52.27
	c2.18,0.03,4.82-1.13,6.92-3.03s3.31-4.25,3.19-6.15C1335.08,527.34,1333.63,526.18,1331.42,526.21z M1377.15,510.78h-54.59
	c-1.72,0-3.74,0.73-5.56,2.01c-1.82,1.28-3.27,2.98-3.99,4.7c-1.26,3.18,0.23,5.56,3.46,5.51h16.43c2.78,0,4.88,1.11,5.82,3.08
	l17.54,36.61c0.58,1.22,1.92,1.87,3.69,1.78c1.76-0.08,3.79-0.89,5.57-2.23c3.2-2.56,4.8-6.1,3.76-8.38l-12.99-27.1
	c-0.3-0.63,0-1.58,0.77-2.41c0.77-0.83,1.85-1.36,2.74-1.37h11.25c1.72,0,3.74-0.73,5.56-2.01c1.82-1.28,3.27-2.99,3.99-4.7
	C1381.88,513.11,1380.38,510.73,1377.15,510.78z M1452.94,530.68c-0.48-2.8-2.78-4.46-6.18-4.46h-44.39
	c-0.21-0.03-0.42-0.05-0.65-0.06h-1.34c-0.58,0.02-0.96-0.28-0.99-0.78c-0.04-0.49,0.28-1.11,0.83-1.6s1.24-0.79,1.8-0.78h17.78
	c3.37,0,7.51-2.73,9.26-6.11c1.75-3.37,0.44-6.11-2.93-6.11h-17.11c-2.69-0.05-4.06-1.93-3.32-4.58c0.99-3.91-2.09-5.71-5.67-5.58
	c-4.54,0.22-9.92,3.9-12.18,8.34c-0.97,1.94-1.22,3.8-0.68,5.26c0.83,2.02-0.07,4.92-2.33,7.52l-2.35,2.62
	c-2.85,3.18-4.27,6.74-3.79,9.54c0.48,2.8,2.79,4.47,6.18,4.47h3.68c0.21,0.03,0.42,0.05,0.64,0.06h42.05
	c0.58-0.02,0.96,0.28,1,0.78c0.04,0.49-0.28,1.11-0.83,1.6c-0.55,0.49-1.24,0.79-1.8,0.78h-5.54c-3.37,0-7.51,2.73-9.26,6.11
	c-1.75,3.37-0.44,6.11,2.93,6.11h4.87c2.69,0.05,4.06,1.93,3.32,4.58c-0.99,3.91,2.09,5.72,5.67,5.58c4.54-0.22,9.92-3.9,12.18-8.34
	c0.97-1.94,1.21-3.8,0.68-5.26c-0.83-2.02,0.07-4.92,2.33-7.52l2.35-2.62C1451.99,537.04,1453.41,533.47,1452.94,530.68z"/>
</svg>
